<svg width="12" height="17" viewBox="0 0 12 17" fill="none" xmlns="http://www.w3.org/2000/svg">
<path d="M5.99974 0C2.69145 0 0 2.64677 0 5.89976C0 9.03104 5.44367 16.3468 5.67545 16.6566L5.89178 16.9461C5.91707 16.9801 5.95736 17 5.99974 17C6.04278 17 6.0828 16.9801 6.10836 16.9461L6.32455 16.6566C6.55647 16.3468 12 9.03104 12 5.89976C12 2.64677 9.30812 0 5.99974 0ZM5.99974 3.78648C7.18511 3.78648 8.14901 4.73428 8.14901 5.89976C8.14901 7.06464 7.18507 8.01304 5.99974 8.01304C4.81507 8.01304 3.85047 7.06464 3.85047 5.89976C3.85047 4.73428 4.81502 3.78648 5.99974 3.78648Z" fill="#A9422E"/>
</svg>
