<svg width="24" height="24" viewBox="0 0 24 24" fill="none" xmlns="http://www.w3.org/2000/svg">
<path d="M12.4265 2.81841C12.3737 2.75674 12.3082 2.70723 12.2344 2.67329C12.1607 2.63934 12.0804 2.62177 11.9993 2.62177C11.9181 2.62177 11.8378 2.63934 11.7641 2.67329C11.6903 2.70723 11.6248 2.75674 11.572 2.81841C10.0879 4.55419 5.24902 10.5551 5.24902 15.0003C5.24902 19.1426 7.85715 21.7503 11.999 21.7503C16.1409 21.7503 18.749 19.1426 18.749 15.0003C18.749 10.5551 13.9101 4.55419 12.4265 2.81841ZM12.749 19.3128C12.6589 19.313 12.5701 19.2915 12.49 19.2503C12.41 19.209 12.341 19.1491 12.2889 19.0755C12.2368 19.002 12.2031 18.9171 12.1907 18.8279C12.1782 18.7386 12.1874 18.6477 12.2175 18.5628C12.2558 18.452 12.3282 18.356 12.4242 18.2887C12.5202 18.2214 12.635 18.1861 12.7523 18.1878C13.4969 18.1862 14.2105 17.8897 14.7369 17.3632C15.2634 16.8367 15.5599 16.1231 15.5615 15.3786C15.5598 15.2613 15.5951 15.1465 15.6625 15.0504C15.7298 14.9544 15.8257 14.8821 15.9365 14.8437C16.0215 14.8137 16.1124 14.8045 16.2016 14.8169C16.2908 14.8294 16.3758 14.863 16.4493 14.9151C16.5228 14.9672 16.5827 15.0362 16.624 15.1163C16.6653 15.1964 16.6867 15.2852 16.6865 15.3753C16.6854 16.4192 16.2702 17.4201 15.532 18.1583C14.7938 18.8965 13.793 19.3117 12.749 19.3128Z" fill="#169AC4"/>
</svg>
