<svg width="13" height="17" viewBox="0 0 13 17" fill="none" xmlns="http://www.w3.org/2000/svg">
<g id="Funk">
<path id="Vector" fill-rule="evenodd" clip-rule="evenodd" d="M5.03301 0.061145C4.94299 0.101234 4.85491 0.177626 4.80649 0.257638C4.72999 0.384082 4.72727 0.450809 4.72727 2.20004V4.01152H4.35496C3.67719 4.01152 3.28077 4.13269 2.89262 4.45845C2.63498 4.67467 2.47934 4.91281 2.40756 5.20054C2.34477 5.45227 2.34548 15.5615 2.40831 15.8091C2.55316 16.3797 3.09711 16.8383 3.7739 16.9604C4.06415 17.0128 10.1133 17.0134 10.4079 16.961C11.0764 16.8423 11.6347 16.3717 11.7745 15.8091C11.8037 15.6914 11.8182 14.9684 11.8182 13.6261V11.6191L12.4091 10.62L13 9.62083V7.4987C13 6.04225 12.986 5.32134 12.9553 5.20054C12.8101 4.62847 12.2645 4.16819 11.5897 4.04856C11.4478 4.02338 10.5054 4.01152 8.64504 4.01152H5.90909V2.20004C5.90909 0.450078 5.90641 0.384116 5.82979 0.257505C5.68443 0.0172697 5.32858 -0.0704147 5.03301 0.061145ZM10.3222 6.07121C10.497 6.14641 10.6364 6.33775 10.6364 6.50256C10.6364 6.66736 10.497 6.85871 10.3222 6.9339C10.1713 6.99884 10.0946 7.00076 7.6789 7.00076H5.19102L5.03388 6.9263C4.63742 6.73844 4.6334 6.28381 5.02639 6.08323L5.1803 6.00468L7.67355 6.00452C10.0948 6.00435 10.1713 6.00628 10.3222 6.07121ZM0.305736 8.06566C0.215721 8.10575 0.127636 8.18214 0.0792213 8.26215C0.00311218 8.38797 0 8.45572 0 9.99C0 11.5249 0.00307275 11.592 0.0793 11.718C0.199294 11.9163 0.386888 11.9828 0.825697 11.9828H1.18182V9.99V7.99718L0.817424 7.99864C0.533039 7.9998 0.420688 8.01451 0.305736 8.06566ZM10.3222 8.06404C10.497 8.13923 10.6364 8.33058 10.6364 8.49538C10.6364 8.66019 10.497 8.85153 10.3222 8.92673C10.1713 8.99166 10.0946 8.99359 7.6789 8.99359H5.19102L5.03388 8.91912C4.63742 8.73127 4.6334 8.27664 5.02639 8.07606L5.1803 7.99751L7.67355 7.99734C10.0948 7.99718 10.1713 7.9991 10.3222 8.06404ZM5.59496 12.0497C5.76975 12.1249 5.90909 12.3162 5.90909 12.481C5.90909 12.7349 5.61785 12.9792 5.31527 12.9792C5.13205 12.9792 4.88867 12.8501 4.802 12.7068C4.65652 12.4664 4.74784 12.2039 5.02639 12.0617C5.21501 11.9655 5.39047 11.9617 5.59496 12.0497ZM5.59496 14.0425C5.76975 14.1177 5.90909 14.3091 5.90909 14.4739C5.90909 14.7277 5.61785 14.9721 5.31527 14.9721C5.13205 14.9721 4.88867 14.8429 4.802 14.6996C4.65652 14.4592 4.74784 14.1967 5.02639 14.0545C5.21501 13.9583 5.39047 13.9546 5.59496 14.0425Z" fill="#DC0909"/>
<path id="Vector_2" fill-rule="evenodd" clip-rule="evenodd" d="M5.03301 0.061145C4.94299 0.101234 4.85491 0.177626 4.80649 0.257638C4.72999 0.384082 4.72727 0.450809 4.72727 2.20004V4.01152H4.35496C3.67719 4.01152 3.28077 4.13269 2.89262 4.45845C2.63498 4.67467 2.47934 4.91281 2.40756 5.20054C2.34477 5.45227 2.34548 15.5615 2.40831 15.8091C2.55316 16.3797 3.09711 16.8383 3.7739 16.9604C4.06415 17.0128 10.1133 17.0134 10.4079 16.961C11.0764 16.8423 11.6347 16.3717 11.7745 15.8091C11.8037 15.6914 11.8182 14.9684 11.8182 13.6261V11.6191L12.4091 10.62L13 9.62083V7.4987C13 6.04225 12.986 5.32134 12.9553 5.20054C12.8101 4.62847 12.2645 4.16819 11.5897 4.04856C11.4478 4.02338 10.5054 4.01152 8.64504 4.01152H5.90909V2.20004C5.90909 0.450078 5.90641 0.384116 5.82979 0.257505C5.68443 0.0172697 5.32858 -0.0704147 5.03301 0.061145ZM10.3222 6.07121C10.497 6.14641 10.6364 6.33775 10.6364 6.50256C10.6364 6.66736 10.497 6.85871 10.3222 6.9339C10.1713 6.99884 10.0946 7.00076 7.6789 7.00076H5.19102L5.03388 6.9263C4.63742 6.73844 4.6334 6.28381 5.02639 6.08323L5.1803 6.00468L7.67355 6.00452C10.0948 6.00435 10.1713 6.00628 10.3222 6.07121ZM0.305736 8.06566C0.215721 8.10575 0.127636 8.18214 0.0792213 8.26215C0.00311218 8.38797 0 8.45572 0 9.99C0 11.5249 0.00307275 11.592 0.0793 11.718C0.199294 11.9163 0.386888 11.9828 0.825697 11.9828H1.18182V9.99V7.99718L0.817424 7.99864C0.533039 7.9998 0.420688 8.01451 0.305736 8.06566ZM10.3222 8.06404C10.497 8.13923 10.6364 8.33058 10.6364 8.49538C10.6364 8.66019 10.497 8.85153 10.3222 8.92673C10.1713 8.99166 10.0946 8.99359 7.6789 8.99359H5.19102L5.03388 8.91912C4.63742 8.73127 4.6334 8.27664 5.02639 8.07606L5.1803 7.99751L7.67355 7.99734C10.0948 7.99718 10.1713 7.9991 10.3222 8.06404ZM5.59496 12.0497C5.76975 12.1249 5.90909 12.3162 5.90909 12.481C5.90909 12.7349 5.61785 12.9792 5.31527 12.9792C5.13205 12.9792 4.88867 12.8501 4.802 12.7068C4.65652 12.4664 4.74784 12.2039 5.02639 12.0617C5.21501 11.9655 5.39047 11.9617 5.59496 12.0497ZM5.59496 14.0425C5.76975 14.1177 5.90909 14.3091 5.90909 14.4739C5.90909 14.7277 5.61785 14.9721 5.31527 14.9721C5.13205 14.9721 4.88867 14.8429 4.802 14.6996C4.65652 14.4592 4.74784 14.1967 5.02639 14.0545C5.21501 13.9583 5.39047 13.9546 5.59496 14.0425Z" fill="#DC0909"/>
</g>
</svg>
