<svg width="16" height="16" viewBox="0 0 16 16" fill="none" xmlns="http://www.w3.org/2000/svg">
<g id="Mikro" clip-path="url(#clip0_32_1573)">
<path id="Vector" d="M13.1199 8.26353C13.1199 7.94353 12.8752 7.69882 12.5552 7.69882C12.2352 7.69882 11.9905 7.94353 11.9905 8.26353C11.9905 10.4659 10.2022 12.2541 7.99988 12.2541C5.79753 12.2541 4.00929 10.4659 4.00929 8.26353C4.00929 7.94353 3.76459 7.69882 3.44459 7.69882C3.12459 7.69882 2.87988 7.94353 2.87988 8.26353C2.87988 10.88 4.83753 13.0824 7.43518 13.3647V14.8706H5.38341C5.06341 14.8706 4.81871 15.1153 4.81871 15.4353C4.81871 15.7553 5.06341 16 5.38341 16H10.6164C10.9364 16 11.1811 15.7553 11.1811 15.4353C11.1811 15.1153 10.9364 14.8706 10.6164 14.8706H8.56459V13.3647C11.1622 13.0824 13.1199 10.88 13.1199 8.26353Z" fill="white" fill-opacity="0.55"/>
<path id="Vector_2" d="M7.99997 0C6.26821 0 4.85645 1.41176 4.85645 3.14353V8.24471C4.85645 9.99529 6.26821 11.3882 7.99997 11.4071C9.73174 11.4071 11.1435 9.99529 11.1435 8.26353V3.14353C11.1435 1.41176 9.73174 0 7.99997 0Z" fill="white" fill-opacity="0.55"/>
</g>
<defs>
<clipPath id="clip0_32_1573">
<rect width="16" height="16" fill="white"/>
</clipPath>
</defs>
</svg>
