<svg width="67" height="44" viewBox="0 0 67 44" fill="none" xmlns="http://www.w3.org/2000/svg">
<g filter="url(#filter0_d_1_717)">
<path d="M25.81 25.635C24.75 26.685 23.46 27.21 21.94 27.21C20.42 27.21 19.13 26.685 18.07 25.635C17.02 24.565 16.495 23.27 16.495 21.75C16.495 20.22 17.02 18.93 18.07 17.88C19.13 16.82 20.42 16.29 21.94 16.29C23.46 16.29 24.75 16.82 25.81 17.88C26.87 18.93 27.4 20.22 27.4 21.75C27.4 23.28 26.87 24.575 25.81 25.635ZM19.525 24.225C20.165 24.865 20.97 25.185 21.94 25.185C22.91 25.185 23.715 24.865 24.355 24.225C25.005 23.575 25.33 22.75 25.33 21.75C25.33 20.75 25.005 19.925 24.355 19.275C23.705 18.625 22.9 18.3 21.94 18.3C20.98 18.3 20.175 18.625 19.525 19.275C18.875 19.925 18.55 20.75 18.55 21.75C18.55 22.75 18.875 23.575 19.525 24.225ZM37.6899 25.635C36.6299 26.685 35.3399 27.21 33.8199 27.21C32.2999 27.21 31.0099 26.685 29.9499 25.635C28.8999 24.565 28.3749 23.27 28.3749 21.75C28.3749 20.22 28.8999 18.93 29.9499 17.88C31.0099 16.82 32.2999 16.29 33.8199 16.29C35.3399 16.29 36.6299 16.82 37.6899 17.88C38.7499 18.93 39.2799 20.22 39.2799 21.75C39.2799 23.28 38.7499 24.575 37.6899 25.635ZM31.4049 24.225C32.0449 24.865 32.8499 25.185 33.8199 25.185C34.7899 25.185 35.5949 24.865 36.2349 24.225C36.8849 23.575 37.2099 22.75 37.2099 21.75C37.2099 20.75 36.8849 19.925 36.2349 19.275C35.5849 18.625 34.7799 18.3 33.8199 18.3C32.8599 18.3 32.0549 18.625 31.4049 19.275C30.7549 19.925 30.4299 20.75 30.4299 21.75C30.4299 22.75 30.7549 23.575 31.4049 24.225ZM45.7148 27.21C44.1448 27.21 42.8398 26.685 41.7998 25.635C40.7698 24.595 40.2548 23.3 40.2548 21.75C40.2548 20.19 40.7698 18.895 41.7998 17.865C42.8398 16.815 44.1448 16.29 45.7148 16.29C46.6648 16.29 47.5398 16.515 48.3398 16.965C49.1498 17.405 49.7798 18.005 50.2298 18.765L48.4448 19.8C48.1848 19.33 47.8148 18.965 47.3348 18.705C46.8548 18.435 46.3148 18.3 45.7148 18.3C44.6948 18.3 43.8698 18.62 43.2398 19.26C42.6198 19.91 42.3098 20.74 42.3098 21.75C42.3098 22.75 42.6198 23.575 43.2398 24.225C43.8698 24.865 44.6948 25.185 45.7148 25.185C46.3148 25.185 46.8548 25.055 47.3348 24.795C47.8248 24.525 48.1948 24.16 48.4448 23.7L50.2298 24.735C49.7798 25.495 49.1498 26.1 48.3398 26.55C47.5398 26.99 46.6648 27.21 45.7148 27.21Z" fill="#1A9AE2"/>
</g>
<defs>
<filter id="filter0_d_1_717" x="0.494995" y="0.290039" width="65.7348" height="42.9199" filterUnits="userSpaceOnUse" color-interpolation-filters="sRGB">
<feFlood flood-opacity="0" result="BackgroundImageFix"/>
<feColorMatrix in="SourceAlpha" type="matrix" values="0 0 0 0 0 0 0 0 0 0 0 0 0 0 0 0 0 0 127 0" result="hardAlpha"/>
<feOffset/>
<feGaussianBlur stdDeviation="8"/>
<feComposite in2="hardAlpha" operator="out"/>
<feColorMatrix type="matrix" values="0 0 0 0 0.101961 0 0 0 0 0.603922 0 0 0 0 0.886275 0 0 0 0.75 0"/>
<feBlend mode="normal" in2="BackgroundImageFix" result="effect1_dropShadow_1_717"/>
<feBlend mode="normal" in="SourceGraphic" in2="effect1_dropShadow_1_717" result="shape"/>
</filter>
</defs>
</svg>
