<svg width="19" height="19" viewBox="0 0 19 19" fill="none" xmlns="http://www.w3.org/2000/svg">
<g clip-path="url(#clip0_1_595)">
<path d="M13.2702 8.30943C13.6603 8.3105 14.0468 8.23417 14.4072 8.08486C14.7676 7.93555 15.0948 7.71622 15.3698 7.43958L18.2273 4.58402C18.4533 4.35802 18.474 3.99027 18.2588 3.75314C18.2048 3.69356 18.1392 3.64559 18.0661 3.61212C17.9929 3.57865 17.9138 3.56039 17.8333 3.55845C17.7529 3.55651 17.673 3.57092 17.5983 3.60081C17.5236 3.63071 17.4558 3.67546 17.399 3.73236L14.8522 6.27732C14.7666 6.36273 14.6507 6.4107 14.5299 6.4107C14.409 6.4107 14.2931 6.36273 14.2076 6.27732C14.0298 6.09994 14.0395 5.80009 14.2168 5.62271L16.7525 3.08703C16.8094 3.03018 16.8541 2.96239 16.8839 2.88776C16.9138 2.81313 16.9282 2.73321 16.9262 2.65285C16.9243 2.57249 16.9061 2.49336 16.8726 2.42026C16.8392 2.34715 16.7913 2.2816 16.7318 2.22757C16.6243 2.13011 16.4842 2.07648 16.3391 2.07728C16.1747 2.07739 16.0171 2.1428 15.9009 2.25912L13.3674 4.7922C13.2819 4.87761 13.166 4.92558 13.0451 4.92558C12.9243 4.92558 12.8083 4.87761 12.7228 4.7922C12.5454 4.61482 12.5547 4.31497 12.7321 4.13759L15.2678 1.60265C15.3246 1.54581 15.3693 1.47802 15.3992 1.40338C15.429 1.32875 15.4434 1.24883 15.4415 1.16847C15.4396 1.08811 15.4213 1.00898 15.3879 0.935881C15.3545 0.862779 15.3065 0.797226 15.247 0.743197C15.1396 0.645734 14.9995 0.592106 14.8544 0.592904C14.69 0.593099 14.5324 0.658492 14.4161 0.77474L11.5606 3.63031C11.2839 3.90542 11.0646 4.23269 10.9152 4.59317C10.7659 4.95364 10.6896 5.34015 10.6907 5.73033V6.03574C10.6908 6.11382 10.6754 6.19115 10.6456 6.2633C10.6157 6.33544 10.5719 6.40099 10.5167 6.45619L9.19521 7.77802C9.18142 7.79182 9.16505 7.80277 9.14703 7.81024C9.12901 7.81771 9.1097 7.82156 9.09019 7.82156C9.07068 7.82156 9.05137 7.81771 9.03335 7.81024C9.01533 7.80277 8.99896 7.79182 8.98517 7.77802L2.55486 1.34734C2.44387 1.23623 2.29339 1.17361 2.13635 1.1732C1.97931 1.17278 1.8285 1.23459 1.71693 1.34511C1.15472 1.90212 0.854505 2.68847 0.854505 3.6188C0.850794 5.15513 1.65829 6.92154 2.96195 8.22333L6.13294 11.3943C6.58364 11.8441 7.19434 12.0967 7.83107 12.0968C8.03406 12.0969 8.23622 12.071 8.43261 12.0196C8.48192 12.0067 8.53267 12.0001 8.58365 12C8.7327 12 8.87625 12.0563 8.98554 12.1577L9.40822 12.5481C9.51723 12.6594 9.57848 12.809 9.57892 12.9648V13.1704C9.57784 13.6377 9.76151 14.0866 10.0899 14.4191L13.4316 17.8172L13.435 17.8209C13.8059 18.1918 14.3089 18.4001 14.8334 18.4001C15.3579 18.4 15.8609 18.1916 16.2317 17.8207C16.6026 17.4498 16.8109 16.9468 16.8108 16.4223C16.8108 15.8978 16.6024 15.3948 16.2315 15.024L11.2225 10.015C11.2087 10.0012 11.1977 9.98482 11.1903 9.9668C11.1828 9.94878 11.179 9.92946 11.179 9.90996C11.179 9.89045 11.1828 9.87113 11.1903 9.85311C11.1977 9.83509 11.2087 9.81872 11.2225 9.80493L12.544 8.48347C12.5991 8.42828 12.6646 8.38451 12.7367 8.35464C12.8088 8.32478 12.886 8.30941 12.964 8.30943H13.2702Z" fill="#EDAC2F"/>
<path d="M7.8312 13.283C6.88045 13.2811 5.96881 12.9043 5.29404 12.2345L4.77963 11.7201C4.72397 11.6646 4.64856 11.6334 4.56993 11.6334C4.49131 11.6334 4.4159 11.6646 4.36024 11.7201L1.20549 14.8586C0.6432 15.4208 0.442409 16.2485 0.720769 17.0591C0.736349 17.1047 0.75482 17.1494 0.77607 17.1927C1.15056 17.9595 1.87726 18.4049 2.67226 18.4049C2.94566 18.4055 3.21647 18.3519 3.46902 18.2472C3.72156 18.1425 3.95081 17.9887 4.14349 17.7947L8.35081 13.5673C8.36852 13.5493 8.38207 13.5275 8.39053 13.5037C8.399 13.4799 8.40216 13.4545 8.3998 13.4293V13.4196C8.39815 13.3965 8.39183 13.3739 8.38122 13.3533C8.37061 13.3326 8.35593 13.3144 8.33807 13.2996C8.32021 13.2847 8.29954 13.2737 8.2773 13.2671C8.25505 13.2605 8.2317 13.2585 8.20866 13.2611C8.08331 13.275 7.95732 13.2823 7.8312 13.283Z" fill="#EDAC2F"/>
</g>
<defs>
<clipPath id="clip0_1_595">
<rect width="19" height="19" fill="white"/>
</clipPath>
</defs>
</svg>
