<svg width="212" height="120" viewBox="0 0 212 120" fill="none" xmlns="http://www.w3.org/2000/svg">
<g filter="url(#filter0_d_1_658)">
<rect x="22" y="58" width="10" height="40" rx="2" fill="#A9422E"/>
</g>
<g filter="url(#filter1_d_1_658)">
<rect x="37" y="58" width="10" height="40" rx="2" fill="#A9422E"/>
</g>
<g filter="url(#filter2_d_1_658)">
<rect x="52" y="58" width="10" height="40" rx="2" fill="#A9422E"/>
</g>
<g filter="url(#filter3_d_1_658)">
<rect x="67" y="58" width="10" height="40" rx="2" fill="#A9422E"/>
</g>
<g filter="url(#filter4_d_1_658)">
<rect x="82" y="58" width="10" height="40" rx="2" fill="#A9422E"/>
</g>
<g filter="url(#filter5_d_1_658)">
<rect x="97" y="58" width="10" height="40" rx="2" fill="#A9422E"/>
</g>
<g filter="url(#filter6_d_1_658)">
<rect x="112" y="58" width="10" height="40" rx="2" fill="#A9422E"/>
</g>
<g filter="url(#filter7_d_1_658)">
<rect x="127" y="58" width="10" height="40" rx="2" fill="#A9422E"/>
</g>
<g filter="url(#filter8_d_1_658)">
<rect x="142" y="58" width="10" height="40" rx="2" fill="#A9422E"/>
</g>
<g filter="url(#filter9_d_1_658)">
<rect x="157" y="42" width="10" height="56" rx="2" fill="#A9422E"/>
</g>
<rect x="172" y="42" width="10" height="56" rx="2" fill="white" fill-opacity="0.35"/>
<rect x="187" y="42" width="10" height="56" rx="2" fill="white" fill-opacity="0.35"/>
<rect x="202" y="42" width="10" height="56" rx="2" fill="white" fill-opacity="0.35"/>
<rect x="22" y="42" width="15" height="10" rx="2" fill="white" fill-opacity="0.35"/>
<path d="M31.382 50H30.041L28.772 47.813H27.827V50H26.585V43.7H29.105C29.687 43.7 30.182 43.904 30.59 44.312C30.998 44.72 31.202 45.212 31.202 45.788C31.202 46.178 31.091 46.541 30.869 46.877C30.647 47.207 30.353 47.456 29.987 47.624L31.382 50ZM29.105 44.861H27.827V46.724H29.105C29.339 46.724 29.54 46.634 29.708 46.454C29.876 46.268 29.96 46.046 29.96 45.788C29.96 45.53 29.876 45.311 29.708 45.131C29.54 44.951 29.339 44.861 29.105 44.861Z" fill="white" fill-opacity="0.75"/>
<rect x="41" y="42" width="16" height="10" rx="2" fill="#EDAC2F"/>
<path d="M47.099 44.285L48.755 43.7H49.835V50H48.593V45.014L47.405 45.347L47.099 44.285Z" fill="white" fill-opacity="0.75"/>
<rect x="61" y="42" width="14" height="10" rx="2" fill="#EDAC2F"/>
<path d="M70.455 50H66.243V49.073L68.394 46.859C68.874 46.349 69.114 45.929 69.114 45.599C69.114 45.353 69.036 45.155 68.88 45.005C68.73 44.855 68.535 44.78 68.295 44.78C67.815 44.78 67.464 45.026 67.242 45.518L66.198 44.906C66.39 44.48 66.669 44.153 67.035 43.925C67.407 43.691 67.821 43.574 68.277 43.574C68.847 43.574 69.336 43.754 69.744 44.114C70.152 44.468 70.356 44.948 70.356 45.554C70.356 46.208 70.011 46.88 69.321 47.57L68.088 48.803H70.455V50Z" fill="white" fill-opacity="0.75"/>
<rect x="79" y="42" width="15" height="10" rx="2" fill="#EDAC2F"/>
<path d="M88.356 44.726L87.177 46.256C87.615 46.382 87.963 46.604 88.221 46.922C88.485 47.24 88.617 47.618 88.617 48.056C88.617 48.704 88.398 49.211 87.96 49.577C87.534 49.943 87.003 50.126 86.367 50.126C85.869 50.126 85.428 50.012 85.044 49.784C84.66 49.55 84.381 49.22 84.207 48.794L85.269 48.182C85.419 48.668 85.785 48.911 86.367 48.911C86.685 48.911 86.931 48.836 87.105 48.686C87.285 48.53 87.375 48.32 87.375 48.056C87.375 47.798 87.285 47.591 87.105 47.435C86.931 47.279 86.685 47.201 86.367 47.201H86.097L85.62 46.481L86.862 44.861H84.396V43.7H88.356V44.726Z" fill="white" fill-opacity="0.75"/>
<rect x="98" y="42" width="15" height="10" rx="2" fill="white" fill-opacity="0.35"/>
<path d="M107.419 47.777H108.094V48.929H107.419V50H106.168V48.929H103.189V47.777L105.286 43.7H106.618L104.53 47.777H106.168V46.283H107.419V47.777Z" fill="white" fill-opacity="0.75"/>
<rect x="117" y="42" width="16" height="10" rx="2" fill="white" fill-opacity="0.35"/>
<path d="M123.872 45.995H124.52C125.132 45.995 125.642 46.178 126.05 46.544C126.464 46.904 126.671 47.408 126.671 48.056C126.671 48.704 126.452 49.211 126.014 49.577C125.588 49.943 125.057 50.126 124.421 50.126C123.905 50.126 123.452 50.012 123.062 49.784C122.678 49.55 122.399 49.214 122.225 48.776L123.287 48.155C123.437 48.659 123.815 48.911 124.421 48.911C124.739 48.911 124.985 48.836 125.159 48.686C125.339 48.53 125.429 48.32 125.429 48.056C125.429 47.798 125.342 47.591 125.168 47.435C124.994 47.279 124.757 47.201 124.457 47.201H122.549L122.801 43.7H126.374V44.861H123.953L123.872 45.995Z" fill="white" fill-opacity="0.75"/>
<rect x="137" y="42" width="15" height="10" rx="2" fill="white" fill-opacity="0.35"/>
<path d="M145.96 43.7L144.565 45.743C145.219 45.761 145.75 45.974 146.158 46.382C146.566 46.79 146.77 47.306 146.77 47.93C146.77 48.572 146.557 49.1 146.131 49.514C145.705 49.922 145.156 50.126 144.484 50.126C143.812 50.126 143.263 49.922 142.837 49.514C142.417 49.112 142.207 48.584 142.207 47.93C142.207 47.456 142.33 47.033 142.576 46.661L144.538 43.7H145.96ZM145.537 47.93C145.537 47.63 145.438 47.387 145.24 47.201C145.042 47.009 144.79 46.913 144.484 46.913C144.178 46.913 143.926 47.006 143.728 47.192C143.536 47.378 143.44 47.624 143.44 47.93C143.44 48.236 143.536 48.485 143.728 48.677C143.926 48.863 144.178 48.956 144.484 48.956C144.79 48.956 145.042 48.863 145.24 48.677C145.438 48.485 145.537 48.236 145.537 47.93Z" fill="white" fill-opacity="0.75"/>
<rect x="127" y="111" width="5" height="85" rx="1" transform="rotate(-90 127 111)" fill="white" fill-opacity="0.35"/>
<rect x="127" y="111" width="5" height="65" rx="1" transform="rotate(-90 127 111)" fill="#EDAC2F"/>
<path d="M121.347 104.843C120.381 103.582 118.277 102.676 118.798 103.162C120.128 104.402 120.939 105.586 120.997 105.853C121.06 106.148 120.737 106.633 121.094 106.785C121.1 106.789 121.11 106.791 121.118 106.795C121.125 107.584 121.118 110.095 121.112 111.837C121.11 111.914 121.048 112.711 120.401 112.711C119.758 112.711 119.694 111.912 119.688 111.837V108.999C119.688 108.431 119.527 107.993 119.206 107.698C118.996 107.499 118.752 107.406 118.553 107.362V103.615C118.553 103.275 118.277 103 117.934 103H112.961C112.616 103 112.339 103.275 112.339 103.615V113.377H112V114H118.893V113.377H118.553V107.905C118.651 107.939 118.755 107.993 118.846 108.078C119.054 108.271 119.161 108.581 119.161 108.999V111.856C119.182 112.333 119.469 113.234 120.401 113.234C121.332 113.234 121.618 112.333 121.64 111.856V111.846C121.64 111.846 121.646 110.521 121.649 109.194C121.649 108.53 121.649 107.866 121.649 107.366C121.649 107.072 121.649 106.872 121.646 106.732C121.728 106.676 121.792 106.607 121.838 106.548C121.954 106.389 122.314 106.106 121.347 104.843ZM117.929 107.527H112.967V103.944H113.428V103.94H117.468V103.944H117.929V107.527Z" fill="#EDAC2F"/>
<path d="M23.1861 10.6L30.5461 8H35.3461V36H29.8261V13.84L24.5461 15.32L23.1861 10.6ZM46.5348 18.2H49.4148C52.1348 18.2 54.4015 19.0133 56.2148 20.64C58.0548 22.24 58.9748 24.48 58.9748 27.36C58.9748 30.24 58.0015 32.4933 56.0548 34.12C54.1615 35.7467 51.8015 36.56 48.9748 36.56C46.6815 36.56 44.6682 36.0533 42.9348 35.04C41.2282 34 39.9882 32.5067 39.2148 30.56L43.9348 27.8C44.6015 30.04 46.2815 31.16 48.9748 31.16C50.3882 31.16 51.4815 30.8267 52.2548 30.16C53.0548 29.4667 53.4548 28.5333 53.4548 27.36C53.4548 26.2133 53.0682 25.2933 52.2948 24.6C51.5215 23.9067 50.4682 23.56 49.1348 23.56H40.6548L41.7748 8H57.6548V13.16H46.8948L46.5348 18.2ZM72.2602 36.56C68.7668 36.56 66.0202 35.24 64.0202 32.6C62.0468 29.9067 61.0602 26.3733 61.0602 22C61.0602 17.6267 62.0468 14.1067 64.0202 11.44C66.0202 8.77333 68.7668 7.44 72.2602 7.44C75.8068 7.44 78.5535 8.77333 80.5002 11.44C82.4735 14.1067 83.4602 17.6267 83.4602 22C83.4602 26.3733 82.4735 29.9067 80.5002 32.6C78.5535 35.24 75.8068 36.56 72.2602 36.56ZM77.9802 22C77.9802 19.0133 77.4868 16.7333 76.5002 15.16C75.5402 13.5867 74.1268 12.8 72.2602 12.8C70.3935 12.8 68.9802 13.5867 68.0202 15.16C67.0602 16.7333 66.5802 19.0133 66.5802 22C66.5802 24.9867 67.0602 27.2667 68.0202 28.84C68.9802 30.3867 70.3935 31.16 72.2602 31.16C74.1268 31.16 75.5402 30.3733 76.5002 28.8C77.4868 27.2267 77.9802 24.96 77.9802 22Z" fill="white"/>
<path d="M91.0295 29.52L95.8715 36H93.0095L88.5095 30.096V36H86.0255V23.4H88.5095V28.962L92.8295 23.4H95.6915L91.0295 29.52ZM106.874 23.4H109.43V36H106.964V27.828L103.418 33.678H103.13L99.5837 27.846V36H97.0997V23.4H99.6557L103.274 29.358L106.874 23.4ZM119.427 21.6L112.227 37.8H111.201L118.401 21.6H119.427ZM128.363 28.404V23.4H130.829V36H128.363V30.78H123.683V36H121.199V23.4H123.683V28.404H128.363Z" fill="white" fill-opacity="0.55"/>
<path d="M36.52 106.562C36.52 106.562 36.3706 106.205 36.1859 106.205H34.4647C34.2806 106.205 34.1312 106.365 34.1312 106.562V106.908H33.662C33.662 106.567 33.662 106.352 33.662 106.331C33.662 106.205 33.5395 106.217 33.5395 106.217H32.4939C32.4939 104.466 31.6667 104.472 31.6667 104.472H29.8167V103.877H31.6667V103H25.5329V103.877H27.5499V104.472C27.5499 104.472 26.5221 104.472 25.6931 104.472L24.5769 105.384H23.7115C23.5267 105.384 23.3774 105.544 23.3774 105.741V108.03H22.8215V105.585H22V111.726H22.8215V109.198H23.3774V111.569C23.3774 111.766 23.5267 111.925 23.7115 111.925H24.5769L27.2923 114C27.2923 114 32.2014 114 32.9739 114C33.7453 114 33.662 113.297 33.662 113.297C33.662 113.297 33.662 112.872 33.662 112.23H34.1312V113.018C34.1312 113.216 34.2806 113.375 34.4647 113.375H36.1859C36.3706 113.375 36.52 113.018 36.52 113.018L37 111.524V108.057L36.52 106.562Z" fill="#05FF00"/>
<path d="M47 105.189H52.4635V104.368H47V105.189Z" fill="white" fill-opacity="0.35"/>
<path d="M47 107.05H52.4635V106.229H47V107.05Z" fill="white" fill-opacity="0.35"/>
<path d="M47 108.91H52.4635V108.09H47V108.91Z" fill="white" fill-opacity="0.35"/>
<path d="M47 110.771H52.4635V109.95H47V110.771Z" fill="white" fill-opacity="0.35"/>
<path d="M47 112.632H52.4635V111.812H47V112.632Z" fill="white" fill-opacity="0.35"/>
<path d="M58.2284 103.142C57.8587 103.048 57.4172 103 56.9146 103C55.4796 103 54.4599 103.298 53.8862 103.887C53.4533 104.331 53.4279 104.779 53.4287 104.891V112.109C53.4279 112.221 53.4533 112.669 53.8862 113.112C54.4599 113.702 55.4796 114 56.9146 114C57.4172 114 57.858 113.952 58.2269 113.858C60.479 113.362 62.9068 111.175 62.9068 108.5C62.9068 105.827 60.4804 103.639 58.2284 103.142ZM57.9931 112.835L57.9742 112.839C57.6888 112.913 57.3322 112.951 56.9146 112.951C54.6524 112.951 54.4868 112.159 54.4781 112.102V104.898C54.4781 104.896 54.4788 104.895 54.4788 104.893L54.4824 104.909L54.4795 104.889C54.5013 104.785 54.7337 104.049 56.9146 104.049C57.3329 104.049 57.6895 104.087 57.9749 104.161L57.9945 104.166C59.8595 104.574 61.8567 106.413 61.8567 108.5C61.8567 110.588 59.8588 112.427 57.9931 112.835Z" fill="white" fill-opacity="0.35"/>
<path fill-rule="evenodd" clip-rule="evenodd" d="M78.714 107.546H74.9357C74.8972 107.546 74.8604 107.546 74.8244 107.546V106.791C74.8244 106.337 74.8275 106.002 74.8957 105.665C74.9614 105.34 75.0825 105.059 75.2658 104.816C75.6342 104.325 76.2143 104.043 76.8248 104.043C77.4354 104.043 78.0154 104.325 78.3839 104.816C78.5673 105.059 78.6884 105.34 78.754 105.665C78.8223 106.002 78.8253 106.337 78.8253 106.791V107.546C78.7894 107.546 78.7526 107.546 78.714 107.546ZM80.6497 109.491C80.6497 109.234 80.6501 109.034 80.6471 108.903C80.6439 108.76 80.6359 108.638 80.6152 108.521C80.5728 108.282 80.4753 108.07 80.3017 107.895C80.1773 107.77 80.033 107.685 79.874 107.631V106.791C79.874 106.282 79.8694 105.848 79.766 105.384C79.6659 104.936 79.4829 104.526 79.2035 104.163C78.6402 103.433 77.7604 103 76.8249 103C75.8893 103 75.0095 103.433 74.4462 104.163C74.1668 104.526 73.9838 104.936 73.8838 105.384C73.7803 105.848 73.7757 106.282 73.7757 106.791V107.631C73.6167 107.685 73.4724 107.77 73.348 107.895C73.1744 108.07 73.0769 108.282 73.0345 108.521C73.0137 108.638 73.0058 108.76 73.0026 108.903C72.9996 109.034 73 109.234 73 109.491V112.141C73 112.398 72.9996 112.598 73.0026 112.729C73.0058 112.872 73.0137 112.994 73.0345 113.111C73.0769 113.35 73.1744 113.562 73.348 113.737C73.5214 113.911 73.7329 114.009 73.9701 114.051C74.0868 114.072 74.208 114.08 74.3505 114.084C74.4808 114.087 74.6804 114.086 74.9357 114.086H78.714C78.9693 114.086 79.169 114.087 79.2991 114.084C79.4417 114.08 79.5629 114.072 79.6796 114.051C79.9168 114.009 80.1283 113.911 80.3017 113.737C80.4753 113.562 80.5728 113.35 80.6152 113.111C80.6359 112.994 80.6439 112.872 80.6471 112.729C80.6501 112.598 80.6497 112.398 80.6497 112.141V109.491Z" fill="white" fill-opacity="0.35"/>
<defs>
<filter id="filter0_d_1_658" x="0" y="36" width="54" height="84" filterUnits="userSpaceOnUse" color-interpolation-filters="sRGB">
<feFlood flood-opacity="0" result="BackgroundImageFix"/>
<feColorMatrix in="SourceAlpha" type="matrix" values="0 0 0 0 0 0 0 0 0 0 0 0 0 0 0 0 0 0 127 0" result="hardAlpha"/>
<feOffset/>
<feGaussianBlur stdDeviation="11"/>
<feComposite in2="hardAlpha" operator="out"/>
<feColorMatrix type="matrix" values="0 0 0 0 0.663 0 0 0 0 0.259 0 0 0 0 0.18 0 0 0 0.75 0"/>
<feBlend mode="normal" in2="BackgroundImageFix" result="effect1_dropShadow_1_658"/>
<feBlend mode="normal" in="SourceGraphic" in2="effect1_dropShadow_1_658" result="shape"/>
</filter>
<filter id="filter1_d_1_658" x="15" y="36" width="54" height="84" filterUnits="userSpaceOnUse" color-interpolation-filters="sRGB">
<feFlood flood-opacity="0" result="BackgroundImageFix"/>
<feColorMatrix in="SourceAlpha" type="matrix" values="0 0 0 0 0 0 0 0 0 0 0 0 0 0 0 0 0 0 127 0" result="hardAlpha"/>
<feOffset/>
<feGaussianBlur stdDeviation="11"/>
<feComposite in2="hardAlpha" operator="out"/>
<feColorMatrix type="matrix" values="0 0 0 0 0.663 0 0 0 0 0.259 0 0 0 0 0.18 0 0 0 0.75 0"/>
<feBlend mode="normal" in2="BackgroundImageFix" result="effect1_dropShadow_1_658"/>
<feBlend mode="normal" in="SourceGraphic" in2="effect1_dropShadow_1_658" result="shape"/>
</filter>
<filter id="filter2_d_1_658" x="30" y="36" width="54" height="84" filterUnits="userSpaceOnUse" color-interpolation-filters="sRGB">
<feFlood flood-opacity="0" result="BackgroundImageFix"/>
<feColorMatrix in="SourceAlpha" type="matrix" values="0 0 0 0 0 0 0 0 0 0 0 0 0 0 0 0 0 0 127 0" result="hardAlpha"/>
<feOffset/>
<feGaussianBlur stdDeviation="11"/>
<feComposite in2="hardAlpha" operator="out"/>
<feColorMatrix type="matrix" values="0 0 0 0 0.663 0 0 0 0 0.259 0 0 0 0 0.18 0 0 0 0.75 0"/>
<feBlend mode="normal" in2="BackgroundImageFix" result="effect1_dropShadow_1_658"/>
<feBlend mode="normal" in="SourceGraphic" in2="effect1_dropShadow_1_658" result="shape"/>
</filter>
<filter id="filter3_d_1_658" x="45" y="36" width="54" height="84" filterUnits="userSpaceOnUse" color-interpolation-filters="sRGB">
<feFlood flood-opacity="0" result="BackgroundImageFix"/>
<feColorMatrix in="SourceAlpha" type="matrix" values="0 0 0 0 0 0 0 0 0 0 0 0 0 0 0 0 0 0 127 0" result="hardAlpha"/>
<feOffset/>
<feGaussianBlur stdDeviation="11"/>
<feComposite in2="hardAlpha" operator="out"/>
<feColorMatrix type="matrix" values="0 0 0 0 0.663 0 0 0 0 0.259 0 0 0 0 0.18 0 0 0 0.75 0"/>
<feBlend mode="normal" in2="BackgroundImageFix" result="effect1_dropShadow_1_658"/>
<feBlend mode="normal" in="SourceGraphic" in2="effect1_dropShadow_1_658" result="shape"/>
</filter>
<filter id="filter4_d_1_658" x="60" y="36" width="54" height="84" filterUnits="userSpaceOnUse" color-interpolation-filters="sRGB">
<feFlood flood-opacity="0" result="BackgroundImageFix"/>
<feColorMatrix in="SourceAlpha" type="matrix" values="0 0 0 0 0 0 0 0 0 0 0 0 0 0 0 0 0 0 127 0" result="hardAlpha"/>
<feOffset/>
<feGaussianBlur stdDeviation="11"/>
<feComposite in2="hardAlpha" operator="out"/>
<feColorMatrix type="matrix" values="0 0 0 0 0.663 0 0 0 0 0.259 0 0 0 0 0.18 0 0 0 0.75 0"/>
<feBlend mode="normal" in2="BackgroundImageFix" result="effect1_dropShadow_1_658"/>
<feBlend mode="normal" in="SourceGraphic" in2="effect1_dropShadow_1_658" result="shape"/>
</filter>
<filter id="filter5_d_1_658" x="75" y="36" width="54" height="84" filterUnits="userSpaceOnUse" color-interpolation-filters="sRGB">
<feFlood flood-opacity="0" result="BackgroundImageFix"/>
<feColorMatrix in="SourceAlpha" type="matrix" values="0 0 0 0 0 0 0 0 0 0 0 0 0 0 0 0 0 0 127 0" result="hardAlpha"/>
<feOffset/>
<feGaussianBlur stdDeviation="11"/>
<feComposite in2="hardAlpha" operator="out"/>
<feColorMatrix type="matrix" values="0 0 0 0 0.663 0 0 0 0 0.259 0 0 0 0 0.18 0 0 0 0.75 0"/>
<feBlend mode="normal" in2="BackgroundImageFix" result="effect1_dropShadow_1_658"/>
<feBlend mode="normal" in="SourceGraphic" in2="effect1_dropShadow_1_658" result="shape"/>
</filter>
<filter id="filter6_d_1_658" x="90" y="36" width="54" height="84" filterUnits="userSpaceOnUse" color-interpolation-filters="sRGB">
<feFlood flood-opacity="0" result="BackgroundImageFix"/>
<feColorMatrix in="SourceAlpha" type="matrix" values="0 0 0 0 0 0 0 0 0 0 0 0 0 0 0 0 0 0 127 0" result="hardAlpha"/>
<feOffset/>
<feGaussianBlur stdDeviation="11"/>
<feComposite in2="hardAlpha" operator="out"/>
<feColorMatrix type="matrix" values="0 0 0 0 0.663 0 0 0 0 0.259 0 0 0 0 0.18 0 0 0 0.75 0"/>
<feBlend mode="normal" in2="BackgroundImageFix" result="effect1_dropShadow_1_658"/>
<feBlend mode="normal" in="SourceGraphic" in2="effect1_dropShadow_1_658" result="shape"/>
</filter>
<filter id="filter7_d_1_658" x="105" y="36" width="54" height="84" filterUnits="userSpaceOnUse" color-interpolation-filters="sRGB">
<feFlood flood-opacity="0" result="BackgroundImageFix"/>
<feColorMatrix in="SourceAlpha" type="matrix" values="0 0 0 0 0 0 0 0 0 0 0 0 0 0 0 0 0 0 127 0" result="hardAlpha"/>
<feOffset/>
<feGaussianBlur stdDeviation="11"/>
<feComposite in2="hardAlpha" operator="out"/>
<feColorMatrix type="matrix" values="0 0 0 0 0.663 0 0 0 0 0.259 0 0 0 0 0.18 0 0 0 0.75 0"/>
<feBlend mode="normal" in2="BackgroundImageFix" result="effect1_dropShadow_1_658"/>
<feBlend mode="normal" in="SourceGraphic" in2="effect1_dropShadow_1_658" result="shape"/>
</filter>
<filter id="filter8_d_1_658" x="120" y="36" width="54" height="84" filterUnits="userSpaceOnUse" color-interpolation-filters="sRGB">
<feFlood flood-opacity="0" result="BackgroundImageFix"/>
<feColorMatrix in="SourceAlpha" type="matrix" values="0 0 0 0 0 0 0 0 0 0 0 0 0 0 0 0 0 0 127 0" result="hardAlpha"/>
<feOffset/>
<feGaussianBlur stdDeviation="11"/>
<feComposite in2="hardAlpha" operator="out"/>
<feColorMatrix type="matrix" values="0 0 0 0 0.663 0 0 0 0 0.259 0 0 0 0 0.18 0 0 0 0.75 0"/>
<feBlend mode="normal" in2="BackgroundImageFix" result="effect1_dropShadow_1_658"/>
<feBlend mode="normal" in="SourceGraphic" in2="effect1_dropShadow_1_658" result="shape"/>
</filter>
<filter id="filter9_d_1_658" x="135" y="20" width="54" height="100" filterUnits="userSpaceOnUse" color-interpolation-filters="sRGB">
<feFlood flood-opacity="0" result="BackgroundImageFix"/>
<feColorMatrix in="SourceAlpha" type="matrix" values="0 0 0 0 0 0 0 0 0 0 0 0 0 0 0 0 0 0 127 0" result="hardAlpha"/>
<feOffset/>
<feGaussianBlur stdDeviation="11"/>
<feComposite in2="hardAlpha" operator="out"/>
<feColorMatrix type="matrix" values="0 0 0 0 0.663 0 0 0 0 0.259 0 0 0 0 0.18 0 0 0 0.75 0"/>
<feBlend mode="normal" in2="BackgroundImageFix" result="effect1_dropShadow_1_658"/>
<feBlend mode="normal" in="SourceGraphic" in2="effect1_dropShadow_1_658" result="shape"/>
</filter>
</defs>
</svg>
